# xmcd
#
# Track frame offsets:
#	150
#	15227
#	27521
#	40233
#	49240
#	62489
#	71993
#	81991
#	92536
#	103407
#	114559
#	128166
#	141816
#	154753
#	168395
#	184023
#	196714
#	205940
#	215674
#	229243
#	243775
#	252132
#	263385
#	279162
#	298484
#
# Disc length: 4129 seconds
#
# Revision: 2
# Processed by: cddbd v1.5.1PL0 Copyright (c) Steve Scherf et al.
# Submitted via: audiograbber 1.83.01
#
DISCID=68101f19
DTITLE=Artista sconosciuto - Hot Parade 2004 - Cd 1
DYEAR=2004
DGENRE=Salsa
TTITLE0=Lady Ragga - Come and Get It
TTITLE1=Ana Flora feat. B-Fonic - Cores
TTITLE2=Sambaman - Catch Me If You Can
TTITLE3=Casanova Traxx - La Serenissima
TTITLE4=Ragga Funk Style feat. Alex Alvarez - Higher
TTITLE5=Porno - Desire
TTITLE6=Jasper Street Co. - He's Alright
TTITLE7=Dr. Kucho! feat. Jodie - Belmondo Rulez 2.0 (It's All About You)
TTITLE8=Junior Jack - Stupidisco
TTITLE9=Junior Jack - Da Hype feat. Robert Smith
TTITLE10=Inaya Day - Keep Pushin'
TTITLE11=Gaudino feat. Ultra Nate' - Bittersweet Melody
TTITLE12=Martin Solveig - Rocking Music
TTITLE13=Magic Box - This is Better (rmx)
TTITLE14=Peblab - Wonder Girl (sam paganini club rmx)
TTITLE15=Playmate - Mind Your Own Business
TTITLE16=Gigi D'Agostino - Ripassa
TTITLE17=M@D - The Concert
TTITLE18=Gigi D'Agostino - Silence
TTITLE19=Gabry Ponte - La Danza Delle Streghe
TTITLE20=Roby Rossini - Tanz Bambolina
TTITLE21=Eiffel 65 - Una Notte E Forse Mai Piu' (roberto molinaro rmx)
TTITLE22=D.Kay and Epsilon feat. Stamina MC - Barcelona
TTITLE23=Simply Red - You Make Me Feel Brand New (bonus track)
TTITLE24=TJ Net - HITrings
EXTD=
EXTT0=
EXTT1=
EXTT2=
EXTT3=
EXTT4=
EXTT5=
EXTT6=
EXTT7=
EXTT8=
EXTT9=
EXTT10=
EXTT11=
EXTT12=
EXTT13=
EXTT14=
EXTT15=
EXTT16=
EXTT17=
EXTT18=
EXTT19=
EXTT20=
EXTT21=
EXTT22=
EXTT23=
EXTT24=
PLAYORDER=
